# xmcd
#
# Track frame offsets:
#	150
#	15445
#	27558
#	40194
#	52884
#	67022
#	80726
#	95495
#	107887
#	119691
#	132868
#	146896
#	161921
#	177972
#	193076
#	205446
#	218881
#	234729
#
# Disc length: 3285 seconds
#
# Revision: 0
# Processed by: cddbd v1.5.2PL0 Copyright (c) Steve Scherf et al.
# Submitted via: EasyCDDAExtractor 16.0.6.1
#
DISCID=150cd312
DTITLE=Συλλογικός δίσκος - Τραγούδια 45 στροφές-Καλδάρας Απόστολος 1
DYEAR=1997
DGENRE=Λαϊκή
TTITLE0=Καλδάρας Απόστολος-Πάνου Πόλυ-Χρηστάκης - Με πίκραναν απόψε [1962, Α. 
TTITLE0=Καλδάρα-Π. Αλαφούζου]
TTITLE1=Μπιθικώτσης Γρηγόρης-Καλδάρας Απόστολος - Το λημέρι [1966, Α. Καλδάρα-
TTITLE1=Χ. Αργυρόπουλου]
TTITLE2=Αγγελόπουλος Μανώλης - Στο πλάϊ σου έχεις εμένα [1966, Α. Καλδάρα]
TTITLE3=Λύδια Γιώτα - Με την αγάπη μου έχω μαλώσει [1966, Α. Καλδάρα]
TTITLE4=Μενιδιάτης Μιχάλης-Κούρτη Ρία - Εμείς θα ξανασμίξουμε [1964, Α. Καλδάρ
TTITLE4=α]
TTITLE5=Νομικός Νικολάκης - Ο Νικολάκης το τζιτζίκι [1962, Α. Καλδάρα]
TTITLE6=Διονυσίου Στράτος-Καλδάρας Απόστολος - Να φύγης [1961, Α. Καλδάρα]
TTITLE7=Γαβαλάς Πάνος-Κούρτη Ρία - Ξανά σε με θα 'ρθείς [1965, Α. Καλδάρα]
TTITLE8=Δημητρίου Σ.-Δημητρίου Φ.-Καλδάρας Α. - Φευγάτες ομορφιές [1965, Α. Κα
TTITLE8=λδάρα]
TTITLE9=Σπυρόπουλος Νίκος - Δεν φτάνει η αγάπη σου [1965, Α. Καλδάρα]
TTITLE10=Πάνου Πόλυ-Καλδάρας Α.-Χρηστάκης - Με στέλνει η μάννα μου σχολείο [19
TTITLE10=62, Α. Καλδάρα]
TTITLE11=Κατσιμίχας Γιάννης-Δημητρίου Φούλη - Λες και τους τρώμε το ψωμί [1965
TTITLE11=, Α. Καλδάρα]
TTITLE12=Μάνος Γιάννης-Σούκα Θεανώ - Τ' ασημένια τα κροτάφια [1962, Α. Καλδάρα
TTITLE12=]
TTITLE13=Μοσχολιού Βίκυ-Καλδάρας Απόστολος - Εγώ θα ζω με τ' όνειρο [1968, Α. 
TTITLE13=Καλδάρα-Ε. Παπαγιαννοπούλου]
TTITLE14=Δουράκη Μαρία - Ζητώ να βρω αγάπη [1967, Α. Καλδάρα-Χ. Αργυρόπουλου]
TTITLE15=Ήτος Γιάννης-Καλδάρας Απόστολος - Με πήρε η νύχτα [1968, Α. Καλδάρα]
TTITLE16=Αμπάβη Καίτη - Πότε θα νυχτώσει [1968, Α. Καλδάρα]
TTITLE17=Κόκοτας Σταμάτης - Πέτρινη καρδιά [1968, Α. Καλδάρα-Ε. Παπαγιαννοπούλ
TTITLE17=ου]
EXTD=
EXTT0=
EXTT1=
EXTT2=
EXTT3=
EXTT4=
EXTT5=
EXTT6=
EXTT7=
EXTT8=
EXTT9=
EXTT10=
EXTT11=
EXTT12=
EXTT13=
EXTT14=
EXTT15=
EXTT16=
EXTT17=
PLAYORDER=
